<svg width="224" height="224" viewBox="0 0 224 224" fill="none" xmlns="http://www.w3.org/2000/svg">
<circle cx="112" cy="112" r="111" fill="white" stroke="#002F88" stroke-width="2"/>
<path d="M208.831 77.4973C207.902 77.793 204.31 78.9761 200.804 80.0746C197.339 81.1731 193.029 82.5673 191.255 83.1588L188.044 84.2573L188.847 86.4544L189.692 88.6514L192.522 87.6374C194.086 87.0459 197.043 86.1164 199.071 85.5248C202.62 84.5108 203.043 84.2151 207.183 80.6661C211.662 76.779 211.831 76.4833 208.831 77.4973Z" fill="#002F88"/>
<path d="M197.634 78.1319C186.987 79.6529 185.889 80.0754 187.03 81.8922C187.325 82.3992 188.508 82.1457 193.705 80.4557C197.127 79.3572 200.338 78.3009 200.803 78.0897L201.648 77.7517L200.803 77.7939C200.338 77.7939 198.902 77.9629 197.634 78.1319Z" fill="#002F88"/>
<path d="M180.228 82.9479C178.284 83.9619 173.975 86.2011 170.595 87.9334C158.976 93.9752 150.948 98.158 145.033 101.242C141.78 102.932 137.344 105.214 135.189 106.312C133.077 107.369 131.344 108.298 131.386 108.383C131.513 108.467 138.527 106.143 149.258 102.383C152.3 101.327 155.596 100.186 156.652 99.8902C157.708 99.5522 161.891 98.1157 165.947 96.6792C170.003 95.2849 174.778 93.6372 176.51 93.0457C180.693 91.6937 186.777 89.4544 187.157 89.1587C187.791 88.6094 185.129 81.0889 184.284 81.0889C183.988 81.0889 182.171 81.9339 180.228 82.9479Z" fill="#002F88"/>
<path d="M197.423 88.059C177.861 94.4388 172.622 96.2979 174.016 96.2979C174.608 96.2979 179.213 95.4528 184.241 94.4388L193.367 92.6221L196.367 90.1716C198.859 88.1435 199.747 87.2985 199.24 87.4675C199.155 87.4675 198.352 87.721 197.423 88.059Z" fill="#002F88"/>
<path d="M189.608 95.3282C188.552 95.4972 172.37 98.5815 164.258 100.145C161.807 100.609 157.625 101.708 154.963 102.553L150.104 104.116L154.329 104.37C156.653 104.539 164.173 104.665 171.06 104.708L183.524 104.75L184.791 103.356C186.65 101.37 191.425 95.0324 191.002 95.0747C190.833 95.1169 190.2 95.2437 189.608 95.3282Z" fill="#002F88"/>
<path d="M140.386 107.453L137.006 108.763L139.33 109.058C140.597 109.227 144.019 109.565 146.935 109.819C149.85 110.072 157.835 110.96 164.68 111.762L177.101 113.241L178.284 111.847C178.918 111.086 180.017 109.65 180.735 108.678L182.002 106.946L178.073 106.692C175.961 106.566 167.342 106.397 158.976 106.312L143.766 106.143L140.386 107.453Z" fill="#002F88"/>
<path d="M130.542 110.834C129.317 111.256 128.388 111.679 128.472 111.763C128.557 111.848 130.796 112.693 133.458 113.664C136.119 114.594 140.26 116.115 142.71 117.002C145.161 117.89 149.259 119.368 151.794 120.298C154.372 121.227 157.329 122.326 158.428 122.748L160.413 123.509L162.019 122.41C162.906 121.819 165.948 119.96 168.821 118.312C171.652 116.622 173.976 115.101 173.976 114.932C173.976 114.763 170.976 114.298 167.342 113.918C152.724 112.355 140.598 111.003 136.795 110.538C133.12 110.073 132.57 110.073 130.542 110.834Z" fill="#002F88"/>
<path d="M127.288 113.959C128.471 114.635 131.133 116.156 133.203 117.382C135.316 118.607 137.597 119.959 138.273 120.381C138.991 120.762 141.442 122.198 143.766 123.55C146.089 124.902 148.751 126.465 149.681 127.015C150.61 127.522 151.666 127.986 152.004 127.986C152.342 127.986 153.863 127.226 155.342 126.296L158.088 124.649L156.525 123.973C155.68 123.635 154.793 123.339 154.582 123.339C154.328 123.339 152.216 122.578 149.807 121.691C139.794 117.889 125.809 112.776 125.471 112.776C125.302 112.776 126.147 113.325 127.288 113.959Z" fill="#002F88"/>
<path d="M122.049 114.551C122.345 115.101 123.232 116.41 124.077 117.509C124.922 118.565 126.486 120.678 127.542 122.156C128.598 123.635 130.795 126.635 132.401 128.832C134.048 131.029 136.71 134.747 138.4 137.071C142.287 142.479 143.048 143.451 143.217 143.197C143.386 142.986 146.935 136.691 149.385 132.17L150.653 129.804L145.752 126.888C143.005 125.325 138.611 122.748 135.95 121.185C133.288 119.664 129.232 117.34 126.993 116.03C122.43 113.368 121.247 113.03 122.049 114.551Z" fill="#002F88"/>
<path d="M121.331 118.903C122.345 121.226 124.838 126.846 126.866 131.366C128.894 135.887 131.175 140.999 131.936 142.689C132.696 144.379 133.372 145.858 133.457 145.943C133.541 146.027 135.4 145.774 137.555 145.393L141.442 144.675L140.09 142.689C138.569 140.535 131.978 131.451 126.485 123.973C124.584 121.395 122.725 118.86 122.345 118.269C121.965 117.677 121.162 116.621 120.57 115.945C119.641 114.846 119.767 115.311 121.331 118.903Z" fill="#002F88"/>
<path d="M118.668 121.565L118.626 125.452L120.823 126.888C122.048 127.691 123.105 128.283 123.189 128.198C123.274 128.114 122.386 126.001 121.245 123.508C120.105 120.973 119.048 118.607 118.922 118.269C118.795 117.931 118.668 119.41 118.668 121.565Z" fill="#002F88"/>
<path d="M118.626 130.648V133.69L122.724 137.281C124.964 139.267 127.625 141.591 128.639 142.52L130.498 144.126L129.484 141.887C128.217 139.098 126.4 135 125.597 133.183C125.217 132.296 123.95 131.155 121.795 129.761L118.626 127.648V130.648Z" fill="#002F88"/>
<path d="M118.626 141.676V147H124.541C127.794 147 130.456 146.958 130.456 146.873C130.456 146.704 120.654 137.916 119.386 136.902C118.668 136.353 118.626 136.649 118.626 141.676Z" fill="#002F88"/>
<path d="M15.0219 77.4973C15.9515 77.793 19.5427 78.9761 23.0495 80.0746C26.514 81.1731 30.8235 82.5673 32.5981 83.1588L35.8091 84.2573L35.0063 86.4544L34.1613 88.6514L31.3306 87.6374C29.7673 87.0459 26.8098 86.1164 24.7818 85.5248C21.2327 84.5108 20.8102 84.2151 16.6697 80.6661C12.1912 76.779 12.0222 76.4833 15.0219 77.4973Z" fill="#002F88"/>
<path d="M26.2186 78.1319C36.8657 79.6529 37.9642 80.0754 36.8234 81.8922C36.5277 82.3992 35.3447 82.1457 30.1479 80.4557C26.7256 79.3572 23.5146 78.3009 23.0498 78.0897L22.2048 77.7517L23.0498 77.7939C23.5146 77.7939 24.9511 77.9629 26.2186 78.1319Z" fill="#002F88"/>
<path d="M43.6252 82.9479C45.5687 83.9619 49.8782 86.2011 53.2583 87.9334C64.8771 93.9752 72.9046 98.158 78.8197 101.242C82.073 102.932 86.5092 105.214 88.664 106.312C90.7765 107.369 92.5088 108.298 92.4665 108.383C92.3398 108.467 85.3262 106.143 74.5947 102.383C71.5526 101.327 68.2571 100.186 67.2009 99.8902C66.1446 99.5522 61.9618 98.1157 57.9058 96.6792C53.8498 95.2849 49.0755 93.6372 47.3432 93.0457C43.1604 91.6937 37.0764 89.4544 36.6962 89.1587C36.0624 88.6094 38.7242 81.0889 39.5692 81.0889C39.8649 81.0889 41.6817 81.9339 43.6252 82.9479Z" fill="#002F88"/>
<path d="M26.4301 88.059C45.992 94.4388 51.231 96.2979 49.8367 96.2979C49.2452 96.2979 44.64 95.4528 39.6122 94.4388L30.4861 92.6221L27.4863 90.1716C24.9936 88.1435 24.1063 87.2985 24.6133 87.4675C24.6978 87.4675 25.5006 87.721 26.4301 88.059Z" fill="#002F88"/>
<path d="M34.246 95.3282C35.3022 95.4972 51.4841 98.5815 59.5962 100.145C62.0467 100.609 66.2295 101.708 68.8912 102.553L73.75 104.116L69.525 104.37C67.2012 104.539 59.6807 104.665 52.7939 104.708L40.33 104.75L39.0625 103.356C37.2035 101.37 32.4292 95.0324 32.8517 95.0747C33.0207 95.1169 33.6545 95.2437 34.246 95.3282Z" fill="#002F88"/>
<path d="M83.4681 107.453L86.8481 108.763L84.5244 109.058C83.2569 109.227 79.8346 109.565 76.9193 109.819C74.0041 110.072 66.0188 110.96 59.1742 111.762L46.7526 113.241L45.5696 111.847C44.9359 111.086 43.8374 109.65 43.1191 108.678L41.8516 106.946L45.7809 106.692C47.8934 106.566 56.5124 106.397 64.878 106.312L80.0881 106.143L83.4681 107.453Z" fill="#002F88"/>
<path d="M93.3121 110.834C94.5374 111.256 95.4669 111.679 95.3824 111.763C95.2979 111.848 93.0586 112.693 90.3968 113.664C87.7351 114.594 83.5945 116.115 81.144 117.002C78.6935 117.89 74.5952 119.368 72.0602 120.298C69.4829 121.227 66.5254 122.326 65.4269 122.748L63.4411 123.509L61.8356 122.41C60.9484 121.819 57.9064 119.96 55.0333 118.312C52.2026 116.622 49.8788 115.101 49.8788 114.932C49.8788 114.763 52.8786 114.298 56.5121 113.918C71.1307 112.355 83.2565 111.003 87.0591 110.538C90.7348 110.073 91.2841 110.073 93.3121 110.834Z" fill="#002F88"/>
<path d="M96.565 113.959C95.382 114.635 92.7202 116.156 90.65 117.382C88.5374 118.607 86.2559 119.959 85.5799 120.381C84.8617 120.762 82.4112 122.198 80.0874 123.55C77.7636 124.902 75.1019 126.465 74.1723 127.015C73.2428 127.522 72.1866 127.986 71.8486 127.986C71.5106 127.986 69.9896 127.226 68.5108 126.296L65.7645 124.649L67.3278 123.973C68.1728 123.635 69.0601 123.339 69.2713 123.339C69.5248 123.339 71.6373 122.578 74.0456 121.691C84.0589 117.889 98.0438 112.776 98.3818 112.776C98.5508 112.776 97.7058 113.325 96.565 113.959Z" fill="#002F88"/>
<path d="M101.805 114.551C101.509 115.101 100.622 116.41 99.7766 117.509C98.9316 118.565 97.3684 120.678 96.3121 122.156C95.2559 123.635 93.0588 126.635 91.4533 128.832C89.8056 131.029 87.1438 134.747 85.4538 137.071C81.5668 142.479 80.8063 143.451 80.6373 143.197C80.4683 142.986 76.9192 136.691 74.4687 132.17L73.2012 129.804L78.1022 126.888C80.8485 125.325 85.2425 122.748 87.9043 121.185C90.5661 119.664 94.6221 117.34 96.8614 116.03C101.424 113.368 102.607 113.03 101.805 114.551Z" fill="#002F88"/>
<path d="M102.522 118.903C101.508 121.226 99.0155 126.846 96.9875 131.366C94.9595 135.887 92.678 140.999 91.9174 142.689C91.1569 144.379 90.4809 145.858 90.3964 145.943C90.3119 146.027 88.4529 145.774 86.2982 145.393L82.4111 144.675L83.7631 142.689C85.2842 140.535 91.8752 131.451 97.3677 123.973C99.269 121.395 101.128 118.86 101.508 118.269C101.889 117.677 102.691 116.621 103.283 115.945C104.212 114.846 104.086 115.311 102.522 118.903Z" fill="#002F88"/>
<path d="M105.185 121.565L105.227 125.452L103.03 126.888C101.805 127.691 100.749 128.283 100.664 128.198C100.58 128.114 101.467 126.001 102.608 123.508C103.748 120.973 104.805 118.607 104.931 118.269C105.058 117.931 105.185 119.41 105.185 121.565Z" fill="#002F88"/>
<path d="M105.227 130.648V133.69L101.129 137.281C98.8895 139.267 96.2277 141.591 95.2137 142.52L93.3547 144.126L94.3687 141.887C95.6362 139.098 97.453 135 98.2558 133.183C98.636 132.296 99.9035 131.155 102.058 129.761L105.227 127.648V130.648Z" fill="#002F88"/>
<path d="M105.227 141.676V147H99.312C96.0587 147 93.397 146.958 93.397 146.873C93.397 146.704 103.199 137.916 104.467 136.902C105.185 136.353 105.227 136.649 105.227 141.676Z" fill="#002F88"/>
</svg>
