<svg width="347" height="123" viewBox="0 0 347 123" fill="none" xmlns="http://www.w3.org/2000/svg">
<path d="M343.453 0.872284C341.823 1.39098 335.524 3.46577 329.374 5.39236C323.298 7.31895 315.74 9.76423 312.628 10.8016L306.996 12.7282L308.404 16.5814L309.886 20.4346L314.851 18.6562C317.592 17.6188 322.779 15.9886 326.336 14.9512C332.56 13.1728 333.301 12.6541 340.563 6.42975C348.418 -0.387409 348.714 -0.906105 343.453 0.872284Z" fill="#002F88"/>
<path d="M323.816 1.98465C305.143 4.65223 303.217 5.39323 305.217 8.57951C305.736 9.46871 307.811 9.02411 316.925 6.06013C322.927 4.13354 328.559 2.28105 329.374 1.91055L330.856 1.31775L329.374 1.39185C328.559 1.39185 326.039 1.68825 323.816 1.98465Z" fill="#002F88"/>
<path d="M293.287 10.4321C289.879 12.2105 282.321 16.1378 276.393 19.1758C256.015 29.7721 241.936 37.1079 231.562 42.5172C225.857 45.4812 218.076 49.4826 214.297 51.4092C210.592 53.2616 207.554 54.8918 207.628 55.04C207.851 55.1882 220.151 51.1128 238.972 44.5179C244.308 42.6654 250.087 40.6647 251.94 40.146C253.792 39.5532 261.128 37.0338 268.242 34.5145C275.355 32.0692 283.729 29.1793 286.767 28.1419C294.102 25.7707 304.773 21.8434 305.44 21.3247C306.551 20.3614 301.883 7.17171 300.401 7.17171C299.882 7.17171 296.696 8.65371 293.287 10.4321Z" fill="#002F88"/>
<path d="M323.445 19.3963C289.137 30.5853 279.948 33.8457 282.394 33.8457C283.431 33.8457 291.508 32.3637 300.326 30.5853L316.331 27.399L321.592 23.1013C325.964 19.5445 327.52 18.0625 326.631 18.3589C326.483 18.3589 325.075 18.8035 323.445 19.3963Z" fill="#002F88"/>
<path d="M309.739 32.1433C307.887 32.4397 279.507 37.8489 265.279 40.5906C260.982 41.4057 253.646 43.3323 248.978 44.8143L240.456 47.556L247.866 48.0006C251.941 48.297 265.131 48.5193 277.209 48.5934L299.069 48.6675L301.292 46.2222C304.552 42.7395 312.925 31.6246 312.184 31.6987C311.888 31.7728 310.777 31.9951 309.739 32.1433Z" fill="#002F88"/>
<path d="M223.412 53.4089L217.484 55.706L221.56 56.2247C223.783 56.5211 229.785 57.1139 234.898 57.5585C240.011 58.0031 254.015 59.5592 266.02 60.9671L287.805 63.5605L289.88 61.1153C290.991 59.7815 292.918 57.2621 294.177 55.5578L296.4 52.5197L289.509 52.0751C285.804 51.8528 270.688 51.5564 256.016 51.4082L229.34 51.1118L223.412 53.4089Z" fill="#002F88"/>
<path d="M206.148 59.338C203.999 60.079 202.369 60.82 202.517 60.9682C202.665 61.1164 206.593 62.5984 211.261 64.3027C215.929 65.9329 223.191 68.6004 227.489 70.1565C231.786 71.7126 238.974 74.3061 243.42 75.9363C247.94 77.5665 253.127 79.4931 255.054 80.2341L258.536 81.5679L261.352 79.6413C262.908 78.6039 268.243 75.3435 273.282 72.4536C278.247 69.4896 282.322 66.8221 282.322 66.5257C282.322 66.2293 277.061 65.4142 270.689 64.7473C245.05 62.0056 223.784 59.6344 217.115 58.8193C210.668 58.0042 209.705 58.0042 206.148 59.338Z" fill="#002F88"/>
<path d="M200.441 64.8203C202.516 66.0059 207.184 68.6735 210.815 70.8224C214.52 72.9713 218.521 75.3425 219.707 76.0835C220.966 76.7504 225.264 79.2697 229.34 81.6409C233.415 84.0121 238.083 86.7538 239.714 87.7171C241.344 88.6063 243.196 89.4214 243.789 89.4214C244.382 89.4214 247.05 88.0876 249.643 86.4574L254.459 83.5675L251.718 82.3819C250.236 81.7891 248.68 81.2704 248.309 81.2704C247.865 81.2704 244.16 79.9366 239.936 78.3806C222.374 71.7116 197.847 62.7455 197.255 62.7455C196.958 62.7455 198.44 63.7088 200.441 64.8203Z" fill="#002F88"/>
<path d="M191.253 65.8584C191.772 66.8216 193.328 69.1187 194.81 71.0453C196.292 72.8978 199.034 76.6028 200.886 79.1963C202.739 81.7898 206.592 87.0508 209.408 90.904C212.298 94.7572 216.966 101.278 219.93 105.353C226.747 114.838 228.081 116.542 228.377 116.098C228.674 115.727 234.898 104.687 239.196 96.7579L241.419 92.6083L232.823 87.4954C228.007 84.7537 220.3 80.2337 215.632 77.492C210.964 74.8244 203.85 70.7489 199.923 68.4518C191.92 63.7836 189.845 63.1908 191.253 65.8584Z" fill="#002F88"/>
<path d="M189.993 73.4896C191.771 77.5651 196.143 87.4203 199.7 95.349C203.256 103.278 207.258 112.244 208.592 115.208C209.925 118.172 211.111 120.765 211.259 120.913C211.407 121.062 214.668 120.617 218.447 119.95L225.264 118.69L222.893 115.208C220.225 111.429 208.666 95.4972 199.033 82.3816C195.698 77.8615 192.438 73.4155 191.771 72.3781C191.104 71.3407 189.696 69.4882 188.659 68.3026C187.029 66.376 187.251 67.1911 189.993 73.4896Z" fill="#002F88"/>
<path d="M185.323 78.1579L185.249 84.9751L189.102 87.4945C191.251 88.9024 193.104 89.9398 193.252 89.7916C193.4 89.6434 191.844 85.9384 189.843 81.5665C187.843 77.1205 185.99 72.971 185.768 72.3782C185.545 71.7854 185.323 74.3789 185.323 78.1579Z" fill="#002F88"/>
<path d="M185.249 94.0893V99.4245L192.437 105.723C196.364 109.206 201.032 113.281 202.811 114.911L206.071 117.727L204.293 113.8C202.07 108.909 198.883 101.722 197.475 98.5353C196.809 96.9792 194.586 94.9785 190.806 92.5332L185.249 88.8282V94.0893Z" fill="#002F88"/>
<path d="M185.249 113.431V122.768H195.623C201.329 122.768 205.997 122.693 205.997 122.545C205.997 122.249 188.806 106.836 186.583 105.058C185.323 104.094 185.249 104.613 185.249 113.431Z" fill="#002F88"/>
<path d="M3.54594 0.872284C5.17613 1.39098 11.4746 3.46577 17.6249 5.39236C23.701 7.31895 31.2592 9.76423 34.3714 10.8016L40.0029 12.7282L38.595 16.5814L37.113 20.4346L32.1484 18.6562C29.4067 17.6188 24.2197 15.9886 20.6629 14.9512C14.4386 13.1728 13.6976 12.6541 6.43583 6.42975C-1.41873 -0.387409 -1.71513 -0.906105 3.54594 0.872284Z" fill="#002F88"/>
<path d="M23.1828 1.98465C41.8559 4.65223 43.7825 5.39323 41.7818 8.57951C41.2631 9.46871 39.1883 9.02411 30.0741 6.06013C24.072 4.13354 18.4404 2.28105 17.6253 1.91055L16.1433 1.31775L17.6253 1.39185C18.4404 1.39185 20.9598 1.68825 23.1828 1.98465Z" fill="#002F88"/>
<path d="M53.7116 10.4321C57.1202 12.2105 64.6784 16.1378 70.6064 19.1758C90.9837 29.7721 105.063 37.1079 115.437 42.5172C121.142 45.4812 128.923 49.4826 132.702 51.4092C136.407 53.2616 139.445 54.8918 139.371 55.04C139.148 55.1882 126.848 51.1128 108.027 44.5179C102.691 42.6654 96.9117 40.6647 95.0592 40.146C93.2067 39.5532 85.8709 37.0338 78.7573 34.5145C71.6437 32.0692 63.2705 29.1793 60.2324 28.1419C52.8966 25.7707 42.2262 21.8434 41.5593 21.3247C40.4478 20.3614 45.1161 7.17171 46.5981 7.17171C47.1168 7.17171 50.3031 8.65371 53.7116 10.4321Z" fill="#002F88"/>
<path d="M23.5543 19.3963C57.8624 30.5853 67.0507 33.8457 64.6055 33.8457C63.5681 33.8457 55.4912 32.3637 46.6734 30.5853L30.6679 27.399L25.4068 23.1013C21.0349 19.5445 19.4788 18.0625 20.368 18.3589C20.5162 18.3589 21.9241 18.8035 23.5543 19.3963Z" fill="#002F88"/>
<path d="M37.2618 32.1433C39.1143 32.4397 67.4944 37.8489 81.7216 40.5906C86.0193 41.4057 93.3552 43.3323 98.0235 44.8143L106.545 47.556L99.135 48.0006C95.0595 48.297 81.8698 48.5193 69.7915 48.5934L47.9322 48.6675L45.7092 46.2222C42.4488 42.7395 34.0755 31.6246 34.8165 31.6987C35.1129 31.7728 36.2244 31.9951 37.2618 32.1433Z" fill="#002F88"/>
<path d="M123.589 53.4089L129.517 55.706L125.441 56.2247C123.218 56.5211 117.216 57.1139 112.103 57.5585C106.99 58.0031 92.9855 59.5592 80.9814 60.9671L59.1961 63.5605L57.1213 61.1153C56.0098 59.7815 54.0832 57.2621 52.8235 55.5578L50.6006 52.5197L57.4918 52.0751C61.1968 51.8528 76.3131 51.5564 90.9848 51.4082L117.661 51.1118L123.589 53.4089Z" fill="#002F88"/>
<path d="M140.854 59.338C143.003 60.079 144.633 60.82 144.485 60.9682C144.337 61.1164 140.409 62.5984 135.741 64.3027C131.073 65.9329 123.811 68.6004 119.513 70.1565C115.215 71.7126 108.028 74.3061 103.582 75.9363C99.0617 77.5665 93.8748 79.4931 91.9482 80.2341L88.4655 81.5679L85.6497 79.6413C84.0936 78.6039 78.7585 75.3435 73.7197 72.4536C68.755 69.4896 64.6796 66.8221 64.6796 66.5257C64.6796 66.2293 69.9406 65.4142 76.3132 64.7473C101.952 62.0056 123.218 59.6344 129.887 58.8193C136.334 58.0042 137.297 58.0042 140.854 59.338Z" fill="#002F88"/>
<path d="M146.558 64.8203C144.483 66.0059 139.815 68.6735 136.184 70.8224C132.479 72.9713 128.478 75.3425 127.292 76.0835C126.033 76.7504 121.735 79.2697 117.659 81.6409C113.584 84.0121 108.916 86.7538 107.285 87.7171C105.655 88.6063 103.803 89.4214 103.21 89.4214C102.617 89.4214 99.9495 88.0876 97.356 86.4574L92.5395 83.5675L95.2812 82.3819C96.7632 81.7891 98.3193 81.2704 98.6898 81.2704C99.1344 81.2704 102.839 79.9366 107.063 78.3806C124.625 71.7116 149.152 62.7455 149.744 62.7455C150.041 62.7455 148.559 63.7088 146.558 64.8203Z" fill="#002F88"/>
<path d="M155.748 65.8584C155.229 66.8216 153.673 69.1187 152.191 71.0453C150.709 72.8978 147.967 76.6028 146.115 79.1963C144.262 81.7898 140.409 87.0508 137.593 90.904C134.703 94.7572 130.035 101.278 127.071 105.353C120.254 114.838 118.92 116.542 118.624 116.098C118.327 115.727 112.103 104.687 107.805 96.7579L105.582 92.6083L114.178 87.4954C118.994 84.7537 126.701 80.2337 131.369 77.492C136.037 74.8244 143.151 70.7489 147.078 68.4518C155.081 63.7836 157.156 63.1908 155.748 65.8584Z" fill="#002F88"/>
<path d="M157.006 73.4896C155.228 77.5651 150.856 87.4203 147.299 95.349C143.743 103.278 139.741 112.244 138.407 115.208C137.074 118.172 135.888 120.765 135.74 120.913C135.592 121.062 132.331 120.617 128.552 119.95L121.735 118.69L124.106 115.208C126.774 111.429 138.333 95.4972 147.966 82.3816C151.301 77.8615 154.561 73.4155 155.228 72.3781C155.895 71.3407 157.303 69.4882 158.34 68.3026C159.97 66.376 159.748 67.1911 157.006 73.4896Z" fill="#002F88"/>
<path d="M161.676 78.1579L161.75 84.9751L157.897 87.4945C155.748 88.9024 153.895 89.9398 153.747 89.7916C153.599 89.6434 155.155 85.9384 157.156 81.5665C159.157 77.1205 161.009 72.971 161.231 72.3782C161.454 71.7854 161.676 74.3789 161.676 78.1579Z" fill="#002F88"/>
<path d="M161.75 94.0893V99.4245L154.562 105.723C150.635 109.206 145.967 113.281 144.188 114.911L140.928 117.727L142.706 113.8C144.929 108.909 148.116 101.722 149.524 98.5353C150.19 96.9792 152.413 94.9785 156.193 92.5332L161.75 88.8282V94.0893Z" fill="#002F88"/>
<path d="M161.75 113.431V122.768H151.376C145.67 122.768 141.002 122.693 141.002 122.545C141.002 122.249 158.193 106.836 160.416 105.058C161.676 104.094 161.75 104.613 161.75 113.431Z" fill="#002F88"/>
</svg>
